<svg xmlns="http://www.w3.org/2000/svg" xmlns:xlink="http://www.w3.org/1999/xlink" width="20" zoomAndPan="magnify" viewBox="0 0 75 74.999997" height="20" preserveAspectRatio="xMidYMid meet" version="1.0"><defs><clipPath id="ffaaa5a601"><path d="M 0 12.3125 L 75 12.3125 L 75 62.5625 L 0 62.5625 Z M 0 12.3125 " clip-rule="nonzero"/></clipPath></defs><g clip-path="url(#ffaaa5a601)"><path fill="#faa000" d="M 71.988281 28.113281 C 71.988281 28.308594 71.988281 28.53125 71.929688 28.726562 L 67.316406 47.152344 C 67.089844 48.074219 66.25 48.746094 65.300781 48.746094 L 37.597656 48.882812 L 9.867188 48.882812 C 8.917969 48.882812 8.078125 48.242188 7.824219 47.292969 L 3.207031 28.8125 C 3.152344 28.589844 3.152344 28.367188 3.152344 28.171875 C 1.363281 27.613281 0.0742188 25.9375 0.0742188 23.984375 C 0.0742188 21.554688 2.0625 19.570312 4.496094 19.570312 C 6.929688 19.570312 8.917969 21.554688 8.917969 23.984375 C 8.917969 25.351562 8.300781 26.578125 7.292969 27.386719 L 13.085938 33.195312 C 14.511719 34.648438 16.554688 35.484375 18.625 35.484375 C 21.089844 35.484375 23.410156 34.3125 24.894531 32.386719 L 34.378906 19.824219 C 33.570312 19.042969 33.09375 17.925781 33.09375 16.722656 C 33.09375 14.296875 35.078125 12.3125 37.515625 12.3125 C 39.949219 12.3125 41.933594 14.296875 41.933594 16.722656 C 41.933594 17.898438 41.460938 18.957031 40.703125 19.765625 L 50.132812 32.359375 C 51.617188 34.3125 53.9375 35.484375 56.402344 35.484375 C 58.5 35.484375 60.460938 34.675781 61.941406 33.195312 L 67.761719 27.386719 C 66.753906 26.578125 66.113281 25.351562 66.113281 23.953125 C 66.113281 21.527344 68.097656 19.542969 70.53125 19.542969 C 72.96875 19.542969 74.953125 21.527344 74.953125 23.953125 C 74.925781 25.882812 73.695312 27.5 71.988281 28.113281 Z M 66.867188 55.445312 C 66.867188 54.300781 65.914062 53.351562 64.769531 53.351562 L 10.484375 53.351562 C 9.335938 53.351562 8.386719 54.300781 8.386719 55.445312 L 8.386719 60.46875 C 8.386719 61.613281 9.335938 62.5625 10.484375 62.5625 L 64.769531 62.5625 C 65.914062 62.5625 66.867188 61.613281 66.867188 60.46875 Z M 66.867188 55.445312 " fill-opacity="1" fill-rule="nonzero"/></g></svg>