<svg xmlns="http://www.w3.org/2000/svg" xmlns:xlink="http://www.w3.org/1999/xlink" width="100" zoomAndPan="magnify" viewBox="0 0 75 74.999997" height="100" preserveAspectRatio="xMidYMid meet" version="1.0"><defs><g/></defs><path fill="#3532ff" d="M 75 37.5 C 75 38.726562 74.941406 39.953125 74.820312 41.175781 C 74.699219 42.398438 74.519531 43.609375 74.28125 44.816406 C 74.039062 46.019531 73.742188 47.210938 73.386719 48.386719 C 73.027344 49.5625 72.617188 50.714844 72.144531 51.851562 C 71.675781 52.984375 71.152344 54.09375 70.570312 55.175781 C 69.992188 56.261719 69.363281 57.3125 68.679688 58.332031 C 67.996094 59.355469 67.265625 60.339844 66.488281 61.289062 C 65.707031 62.238281 64.886719 63.148438 64.015625 64.015625 C 63.148438 64.886719 62.238281 65.707031 61.289062 66.488281 C 60.339844 67.265625 59.355469 67.996094 58.332031 68.679688 C 57.3125 69.363281 56.261719 69.992188 55.175781 70.570312 C 54.09375 71.152344 52.984375 71.675781 51.851562 72.144531 C 50.714844 72.617188 49.5625 73.027344 48.386719 73.386719 C 47.210938 73.742188 46.019531 74.039062 44.816406 74.28125 C 43.609375 74.519531 42.398438 74.699219 41.175781 74.820312 C 39.953125 74.941406 38.726562 75 37.5 75 C 36.273438 75 35.046875 74.941406 33.824219 74.820312 C 32.601562 74.699219 31.390625 74.519531 30.183594 74.28125 C 28.980469 74.039062 27.789062 73.742188 26.613281 73.386719 C 25.4375 73.027344 24.285156 72.617188 23.148438 72.144531 C 22.015625 71.675781 20.90625 71.152344 19.824219 70.570312 C 18.738281 69.992188 17.6875 69.363281 16.667969 68.679688 C 15.644531 67.996094 14.660156 67.265625 13.710938 66.488281 C 12.761719 65.707031 11.851562 64.886719 10.984375 64.015625 C 10.113281 63.148438 9.292969 62.238281 8.511719 61.289062 C 7.734375 60.339844 7.003906 59.355469 6.320312 58.332031 C 5.636719 57.3125 5.007812 56.261719 4.429688 55.175781 C 3.847656 54.09375 3.324219 52.984375 2.855469 51.851562 C 2.382812 50.714844 1.972656 49.5625 1.613281 48.386719 C 1.257812 47.210938 0.960938 46.019531 0.71875 44.816406 C 0.480469 43.609375 0.300781 42.398438 0.179688 41.175781 C 0.0585938 39.953125 0 38.726562 0 37.5 C 0 36.273438 0.0585938 35.046875 0.179688 33.824219 C 0.300781 32.601562 0.480469 31.390625 0.71875 30.183594 C 0.960938 28.980469 1.257812 27.789062 1.613281 26.613281 C 1.972656 25.4375 2.382812 24.285156 2.855469 23.148438 C 3.324219 22.015625 3.847656 20.90625 4.429688 19.824219 C 5.007812 18.738281 5.636719 17.6875 6.320312 16.667969 C 7.003906 15.644531 7.734375 14.660156 8.511719 13.710938 C 9.292969 12.761719 10.113281 11.851562 10.984375 10.984375 C 11.851562 10.113281 12.761719 9.292969 13.710938 8.511719 C 14.660156 7.734375 15.644531 7.003906 16.667969 6.320312 C 17.6875 5.636719 18.738281 5.007812 19.824219 4.429688 C 20.90625 3.847656 22.015625 3.324219 23.148438 2.855469 C 24.285156 2.382812 25.4375 1.972656 26.613281 1.613281 C 27.789062 1.257812 28.980469 0.960938 30.183594 0.71875 C 31.390625 0.480469 32.601562 0.300781 33.824219 0.179688 C 35.046875 0.0585938 36.273438 0 37.5 0 C 38.726562 0 39.953125 0.0585938 41.175781 0.179688 C 42.398438 0.300781 43.609375 0.480469 44.816406 0.71875 C 46.019531 0.960938 47.210938 1.257812 48.386719 1.613281 C 49.5625 1.972656 50.714844 2.382812 51.851562 2.855469 C 52.984375 3.324219 54.09375 3.847656 55.175781 4.429688 C 56.261719 5.007812 57.3125 5.636719 58.332031 6.320312 C 59.355469 7.003906 60.339844 7.734375 61.289062 8.511719 C 62.238281 9.292969 63.148438 10.113281 64.015625 10.984375 C 64.886719 11.851562 65.707031 12.761719 66.488281 13.710938 C 67.265625 14.660156 67.996094 15.644531 68.679688 16.667969 C 69.363281 17.6875 69.992188 18.738281 70.570312 19.824219 C 71.152344 20.90625 71.675781 22.015625 72.144531 23.148438 C 72.617188 24.285156 73.027344 25.4375 73.386719 26.613281 C 73.742188 27.789062 74.039062 28.980469 74.28125 30.183594 C 74.519531 31.390625 74.699219 32.601562 74.820312 33.824219 C 74.941406 35.046875 75 36.273438 75 37.5 Z M 75 37.5 " fill-opacity="1" fill-rule="nonzero"/><g fill="#ffffff" fill-opacity="1"><g transform="translate(6.578789, 56.249994)"><g><path d="M 1.765625 -19.46875 C 1.765625 -23.28125 2.5625 -26.679688 4.15625 -29.671875 C 5.75 -32.660156 8.007812 -34.988281 10.9375 -36.65625 C 13.875 -38.320312 17.25 -39.15625 21.0625 -39.15625 C 25.90625 -39.15625 29.972656 -37.863281 33.265625 -35.28125 C 36.566406 -32.695312 38.695312 -29.1875 39.65625 -24.75 L 28.046875 -24.75 C 27.347656 -26.21875 26.382812 -27.335938 25.15625 -28.109375 C 23.925781 -28.878906 22.507812 -29.265625 20.90625 -29.265625 C 18.40625 -29.265625 16.410156 -28.375 14.921875 -26.59375 C 13.441406 -24.8125 12.703125 -22.4375 12.703125 -19.46875 C 12.703125 -16.457031 13.441406 -14.0625 14.921875 -12.28125 C 16.410156 -10.507812 18.40625 -9.625 20.90625 -9.625 C 22.507812 -9.625 23.925781 -10.007812 25.15625 -10.78125 C 26.382812 -11.550781 27.347656 -12.671875 28.046875 -14.140625 L 39.65625 -14.140625 C 38.695312 -9.703125 36.566406 -6.1875 33.265625 -3.59375 C 29.972656 -1.007812 25.90625 0.28125 21.0625 0.28125 C 17.25 0.28125 13.875 -0.550781 10.9375 -2.21875 C 8.007812 -3.894531 5.75 -6.222656 4.15625 -9.203125 C 2.5625 -12.191406 1.765625 -15.613281 1.765625 -19.46875 Z M 1.765625 -19.46875 "/></g></g></g><g fill="#ffffff" fill-opacity="1"><g transform="translate(32.269152, 55.569576)"><g><path d="M 17.71875 0.390625 C 13.207031 0.390625 9.5 -0.679688 6.59375 -2.828125 C 3.695312 -4.972656 2.140625 -8.046875 1.921875 -12.046875 L 13.421875 -12.046875 C 13.535156 -10.691406 13.9375 -9.703125 14.625 -9.078125 C 15.320312 -8.453125 16.222656 -8.140625 17.328125 -8.140625 C 18.316406 -8.140625 19.128906 -8.382812 19.765625 -8.875 C 20.410156 -9.375 20.734375 -10.066406 20.734375 -10.953125 C 20.734375 -12.085938 20.203125 -12.96875 19.140625 -13.59375 C 18.078125 -14.21875 16.351562 -14.910156 13.96875 -15.671875 C 11.4375 -16.515625 9.390625 -17.332031 7.828125 -18.125 C 6.273438 -18.914062 4.921875 -20.070312 3.765625 -21.59375 C 2.609375 -23.113281 2.03125 -25.101562 2.03125 -27.5625 C 2.03125 -30.050781 2.65625 -32.1875 3.90625 -33.96875 C 5.15625 -35.75 6.878906 -37.097656 9.078125 -38.015625 C 11.273438 -38.929688 13.769531 -39.390625 16.5625 -39.390625 C 21.070312 -39.390625 24.671875 -38.332031 27.359375 -36.21875 C 30.054688 -34.113281 31.5 -31.15625 31.6875 -27.34375 L 19.96875 -27.34375 C 19.9375 -28.519531 19.578125 -29.398438 18.890625 -29.984375 C 18.210938 -30.566406 17.34375 -30.859375 16.28125 -30.859375 C 15.476562 -30.859375 14.816406 -30.617188 14.296875 -30.140625 C 13.785156 -29.671875 13.53125 -28.992188 13.53125 -28.109375 C 13.53125 -27.378906 13.8125 -26.75 14.375 -26.21875 C 14.945312 -25.6875 15.65625 -25.226562 16.5 -24.84375 C 17.34375 -24.457031 18.59375 -23.96875 20.25 -23.375 C 22.707031 -22.53125 24.734375 -21.695312 26.328125 -20.875 C 27.921875 -20.050781 29.296875 -18.894531 30.453125 -17.40625 C 31.609375 -15.925781 32.1875 -14.046875 32.1875 -11.765625 C 32.1875 -9.460938 31.609375 -7.394531 30.453125 -5.5625 C 29.296875 -3.726562 27.625 -2.273438 25.4375 -1.203125 C 23.257812 -0.140625 20.6875 0.390625 17.71875 0.390625 Z M 17.71875 0.390625 "/></g></g></g></svg>